PathFileType	4	(X/Y/Z)	/Users/niels/Desktop/University/Third Semester/Perception and Action/Exam/Gymnastics Motion Tracking/Code for Gym Tracking/Analyzed Data/Webcam_Backflip/id7_3_trajectory_Sports2D/id7_3_trajectory_Sports2D_px_person00.trc
DataRate	CameraRate	NumFrames	NumMarkers	Units	OrigDataRate	OrigDataStartFrame	OrigNumFrames
29.8125	29.8125	12	22	m	29.8125	0	160
Frame#	Time	Hip			RHip			RKnee			RAnkle			RBigToe			RSmallToe			RHeel			LHip			LKnee			LAnkle			LBigToe			LSmallToe			LHeel			Neck			Head			Nose			RShoulder			RElbow			RWrist			LShoulder			LElbow			LWrist		
		X1	Y1	Z1	X2	Y2	Z2	X3	Y3	Z3	X4	Y4	Z4	X5	Y5	Z5	X6	Y6	Z6	X7	Y7	Z7	X8	Y8	Z8	X9	Y9	Z9	X10	Y10	Z10	X11	Y11	Z11	X12	Y12	Z12	X13	Y13	Z13	X14	Y14	Z14	X15	Y15	Z15	X16	Y16	Z16	X17	Y17	Z17	X18	Y18	Z18	X19	Y19	Z19	X20	Y20	Z20	X21	Y21	Z21	X22	Y22	Z22
0	0.0	0.955906090928394	-0.534272271283373	0.0	0.9602771096751491	-0.5357275052402409	0.0	0.9835756992146065	-0.6464400022009584	0.0	0.9500807668336101	-0.7484287084919267	0.0	0.985020542572696	-0.7703043512059697	0.0	0.9777489152213302	-0.7732155691063116	0.0	0.9384306373677368	-0.7630017008665629	0.0	0.9515260944739689	-0.5342691438219801	0.0	0.9762895903187949	-0.6449853723182813	0.0	0.9515248700305778	-0.7425972314529345	0.0	0.9864894657389673	-0.7644681188436064	0.0	0.9821181962827749	-0.7615735264797366	0.0	0.938434713248294	-0.7557033785336003	0.0	0.9690151549065825	-0.39297981727439074	0.0	0.9733841040052867	-0.32306747238693667	0.0	0.9937681091711862	-0.3551199712421492	0.0	0.9792053409405713	-0.40171457688364337	0.0	1.0505812859493422	-0.4118956175192385	0.0	1.1175812270572887	-0.39147954147420905	0.0	0.9500805501898748	-0.4031719212313152	0.0	1.018529364943797	-0.42062861713280897	0.0	0.986518973813837	-0.4060326098131057	0.0
1	0.03354297693920335	0.9550732439549698	-0.5439313611041585	0.0	0.9594327419548401	-0.5442143333426309	0.0	0.9870551273926408	-0.6537305143952188	0.0	0.9500701797444256	-0.7550253717447404	0.0	0.9853723707563729	-0.7758343222468034	0.0	0.9785757541685053	-0.7784555030051702	0.0	0.938251128003487	-0.7691162557740008	0.0	0.9511472399040012	-0.5427691255924565	0.0	0.9793693846719423	-0.6518754341648748	0.0	0.9517883985638256	-0.7483830297591061	0.0	0.9879150636562458	-0.7698561365358081	0.0	0.9826323334537084	-0.7666247459266723	0.0	0.9386413076923166	-0.7612992342900972	0.0	0.9675759015197296	-0.4029758935754218	0.0	0.9746610989310142	-0.3317496172308678	0.0	0.9945443703580389	-0.3653341811458023	0.0	0.9783467365381072	-0.41314074751276014	0.0	1.0455294724665156	-0.43480948166539113	0.0	1.1126771011456102	-0.4298357288511061	0.0	0.9495474466389935	-0.4133058710722173	0.0	1.010596923175357	-0.4389797195803884	0.0	0.9995470184005301	-0.4367198579295998	0.0
2	0.0670859538784067	0.9545104987842551	-0.5545088583302076	0.0	0.9586487436024435	-0.5538071996172783	0.0	0.99023692433437	-0.6619334460814844	0.0	0.9500238671514376	-0.7624904013334789	0.0	0.9857664364673066	-0.782393758545005	0.0	0.9792676429433582	-0.7847421558422331	0.0	0.9382463694102722	-0.7761579101064271	0.0	0.9511459070315221	-0.5523525223635762	0.0	0.9823763899140077	-0.6596749126436989	0.0	0.9521094173193728	-0.7552116605506154	0.0	0.9895105961992551	-0.7762622672583722	0.0	0.9834364219607017	-0.7727526020013765	0.0	0.9388073185587796	-0.767966694180575	0.0	0.9664516666020545	-0.4136041901962029	0.0	0.9761541882083264	-0.3414688621199577	0.0	0.995463957767417	-0.37624894350301197	0.0	0.9773793194491431	-0.42543648212450325	0.0	1.0392031727630466	-0.45830465449142244	0.0	1.1050205030455362	-0.4686843467406934	0.0	0.94941434873533	-0.42433539887996885	0.0	1.000810025685451	-0.45804474464103645	0.0	1.00793160604681	-0.4682411839011572	0.0
3	0.10062893081761004	0.9543969902275451	-0.5664633058248837	0.0	0.9580492751556959	-0.5651077002566953	0.0	0.9927101471021625	-0.6716191078265423	0.0	0.9499376985951414	-0.7714006487528327	0.0	0.986069594308794	-0.7906371255917477	0.0	0.9795877391857569	-0.792771788398348	0.0	0.9385025844407617	-0.7847476083480895	0.0	0.9517386636533014	-0.5636016397239725	0.0	0.9850956625949694	-0.6689625677838935	0.0	0.9525049276008823	-0.7637484198847571	0.0	0.9912986998997959	-0.784240472952645	0.0	0.9846046558458208	-0.7805782561370359	0.0	0.9389094518191528	-0.776412561394704	0.0	0.9659424218629884	-0.4251543217007593	0.0	0.9780407718319154	-0.35279317574899705	0.0	0.996668854641271	-0.3881784046495402	0.0	0.9763196745970791	-0.4389622146713578	0.0	1.030620764084251	-0.48228989113720133	0.0	1.09225446779881	-0.5074138625530572	0.0	0.9499485445864573	-0.43662780716079425	0.0	0.9887013009509326	-0.477739477359378	0.0	1.0093102318988847	-0.49998071607722566	0.0
4	0.1341719077568134	0.9548032498654702	-0.5796135973845745	0.0	0.9578317651891189	-0.5779990858874107	0.0	0.9940577257476543	-0.6828254750294039	0.0	0.9498048958186857	-0.7818468058586434	0.0	0.9859605407554547	-0.8006401153938029	0.0	0.9792519020924909	-0.8026710290265117	0.0	0.9389669697426178	-0.7949618406202003	0.0	0.9528846908470036	-0.5763871847224773	0.0	0.9871666599855782	-0.679802758699673	0.0	0.952927634955133	-0.7740706585425237	0.0	0.9930310511353354	-0.7936842097530538	0.0	0.985855768162647	-0.79008477003392	0.0	0.9389369969464196	-0.7866869044367311	0.0	0.9663064089467175	-0.43745209450568256	0.0	0.9803615836849766	-0.3656562309051085	0.0	0.9982550076195845	-0.40092941583038	0.0	0.9753533923885184	-0.4534308520497037	0.0	1.019338691911552	-0.5058119087271947	0.0	1.072898809929557	-0.5440859523686385	0.0	0.9512843907969545	-0.4498734995685474	0.0	0.9754294974126311	-0.4971064734116559	0.0	1.0042731273920027	-0.5297940735838915	0.0
5	0.16771488469601675	0.955736757608479	-0.5931705829188129	0.0	0.9581771826445543	-0.5916630945166049	0.0	0.9940188893974569	-0.6949849262283214	0.0	0.9495914751036985	-0.7932988637479023	0.0	0.9851430094007018	-0.8117619734119855	0.0	0.9781138858567562	-0.8138101268840172	0.0	0.9394783251037384	-0.8061887476149376	0.0	0.9543776159750452	-0.5898973459826146	0.0	0.9881918880504259	-0.6916652199282898	0.0	0.9532825864734173	-0.7855797406999552	0.0	0.9941422867684143	-0.8038394173843019	0.0	0.9866122868808245	-0.8005751364501794	0.0	0.9388825030659823	-0.7980780401548998	0.0	0.9677000795076065	-0.4498685323241436	0.0	0.9830598069738511	-0.3793448328190581	0.0	1.000273526700949	-0.41384724545889434	0.0	0.9747840587230967	-0.46793878317765913	0.0	1.0055355404042448	-0.5271185188779012	0.0	1.0467011621097024	-0.5757313311889204	0.0	0.9534821530389147	-0.46321187703670413	0.0	0.962482368636676	-0.5146814792573264	0.0	0.993776093084981	-0.5550230581460038	0.0
6	0.20125786163522008	0.9571490072355642	-0.6059145107402519	0.0	0.9591109773701827	-0.6047611185733255	0.0	0.9925685512033842	-0.7070047127360111	0.0	0.9492719439356178	-0.8046866729243177	0.0	0.9836170550852393	-0.8227334520655097	0.0	0.9763198073020706	-0.8248882613913068	0.0	0.9398537332525501	-0.8172796895799447	0.0	0.9560257638627085	-0.6028242622132285	0.0	0.9879006327966677	-0.7034780512531521	0.0	0.9534596433163408	-0.7971233159018347	0.0	0.994021142168194	-0.8135134788545696	0.0	0.986308942030121	-0.81087052514236	0.0	0.9387201840635772	-0.8093860275264818	0.0	0.9700800162644113	-0.46144664050847783	0.0	0.9860814532114314	-0.3925837516035124	0.0	1.0027614219735403	-0.4259154001772611	0.0	0.9748906160281032	-0.4811148670198963	0.0	0.9900050329350255	-0.5440939427577386	0.0	1.0149451562772769	-0.5992082506823965	0.0	0.9564825652711507	-0.4754876268628652	0.0	0.9510172733025779	-0.5290531392959421	0.0	0.9778631519807164	-0.5737746272747741	0.0
7	0.23480083857442344	0.9589116096275285	-0.6163960314314779	0.0	0.9604777844979806	-0.6156754362179858	0.0	0.9898888532126205	-0.7174590507157244	0.0	0.9489071777322159	-0.814664756940308	0.0	0.9818148098413123	-0.8320410327674022	0.0	0.9743291959031426	-0.8343449370290535	0.0	0.9399949174013433	-0.8269151040787492	0.0	0.9577323401856822	-0.6135862208107543	0.0	0.9862448790552691	-0.7138132713979762	0.0	0.953359825753415	-0.8072707461992521	0.0	0.9924659622446927	-0.8214200934856132	0.0	0.9847494322519843	-0.8196630294464002	0.0	0.9383974927929949	-0.8192953087401479	0.0	0.9731839367750347	-0.471066175982596	0.0	0.9893975364665147	-0.40373676258053504	0.0	1.0057208736011554	-0.43591546452484903	0.0	0.9757332585348385	-0.4914490339609965	0.0	0.9739875349553571	-0.5548651971435693	0.0	0.9803792768880212	-0.6121454109742172	0.0	0.9600661563466237	-0.48548062274089626	0.0	0.9422311621982676	-0.5391092735185617	0.0	0.9573159846855046	-0.5852152593040146	0.0
8	0.2683438155136268	0.9608366923133921	-0.6231624880223384	0.0	0.9620451236515587	-0.6228118143075659	0.0	0.9863123737994842	-0.7248555797965114	0.0	0.9486786070355254	-0.8218904457051109	0.0	0.980428595585503	-0.8383662356266518	0.0	0.972725490593803	-0.8407964123266046	0.0	0.9399692309273773	-0.833894312203204	0.0	0.9594587960875868	-0.6206145044685504	0.0	0.9834278599078177	-0.7211807461427462	0.0	0.9529691638433393	-0.8146003819183942	0.0	0.9898269193493985	-0.82652091515993	0.0	0.9822456797798307	-0.8257573500125285	0.0	0.9379155443273701	-0.8265190834015383	0.0	0.9766282780814891	-0.47755431143713367	0.0	0.99296996954796	-0.4111507901368991	0.0	1.0090376734879833	-0.44266385674464453	0.0	0.9770623571498788	-0.4976415739799435	0.0	0.9588362650276051	-0.5582011435442998	0.0	0.946500346394333	-0.6134180946269674	0.0	0.9639393939091848	-0.4920144658930183	0.0	0.9367227395943023	-0.5437363748333355	0.0	0.9342947462864948	-0.5887209062660627	0.0
9	0.3018867924528301	0.9627846090151856	-0.6250824334742858	0.0	0.9636508071215452	-0.6249977699019353	0.0	0.9822899171925371	-0.7279560657754263	0.0	0.9488209525620054	-0.8252902965410261	0.0	0.9800748232161918	-0.8409077616742004	0.0	0.971941420884006	-0.8433468688571953	0.0	0.9400213362808139	-0.8372980749116214	0.0	0.9612412115762081	-0.6227515488054892	0.0	0.979908756526515	-0.7243639506058418	0.0	0.9524622751007684	-0.8179918535792348	0.0	0.9867520307668733	-0.8282961263686969	0.0	0.9794785959814608	-0.828275281062282	0.0	0.9374766950502116	-0.8299087563346939	0.0	0.9800642425528109	-0.4797932743233768	0.0	0.9967101504926179	-0.4135528846152624	0.0	1.0124670465210936	-0.4452034277002767	0.0	0.9784456468940976	-0.49875931268029533	0.0	0.9456478667292539	-0.5536282487861436	0.0	0.9164788767947063	-0.6032637065162574	0.0	0.9678922586143647	-0.4940378203477473	0.0	0.9337980076393011	-0.5417023511677177	0.0	0.9115559062055355	-0.583417671646209	0.0
10	0.3354297693920335	0.9647294282328917	-0.6216164452546329	0.0	0.965269205420072	-0.621739062079795	0.0	0.9783565018255331	-0.7260386656107656	0.0	0.9494968864378254	-0.824277811452336	0.0	0.9809559223486587	-0.8395359063187224	0.0	0.9720970656339284	-0.8417813863941761	0.0	0.9404661267308648	-0.8366119545639785	0.0	0.9631472862067127	-0.61950181038069	0.0	0.976304102761175	-0.722651122339214	0.0	0.9521178256190483	-0.8168505853591681	0.0	0.983867389504368	-0.8267444757012213	0.0	0.9771195010511156	-0.8269342912118346	0.0	0.9374533175338281	-0.8287242943001886	0.0	0.983280066701234	-0.476957723027911	0.0	1.0004467785334816	-0.41033799433482604	0.0	1.0157205799440208	-0.44292841753388656	0.0	0.9795514478560234	-0.4943193105649189	0.0	0.9351026722719407	-0.5415546829965816	0.0	0.8923659602129537	-0.5833495388497982	0.0	0.9718350064066452	-0.49083848417048903	0.0	0.9322688411630252	-0.5323875228145436	0.0	0.8918734956851381	-0.5691057081727191	0.0
11	0.36897274633123683	0.9666681597576314	-0.6128383850656399	0.0	0.9669045423249869	-0.6131468504795684	0.0	0.9750406895908562	-0.718972618085092	0.0	0.9507401121262814	-0.8187353508655637	0.0	0.9827301547459334	-0.83459531408659	0.0	0.97301972496989	-0.8364296668426513	0.0	0.9415429285362384	-0.8316989439702329	0.0	0.9651069434675632	-0.610970169014946	0.0	0.9731767410248302	-0.7158699517978556	0.0	0.9521249148972916	-0.8110722000573125	0.0	0.9815947184184657	-0.8220066766991193	0.0	0.9754567939524879	-0.8219875626018118	0.0	0.9381350393156787	-0.8227881162566931	0.0	0.9861831023264381	-0.4688037899497616	0.0	1.0039469380532036	-0.4016332087586003	0.0	1.0185903238068135	-0.4356851661122406	0.0	0.9803664157763305	-0.4843912698763764	0.0	0.9275243736852554	-0.5233215254281033	0.0	0.8748677640468819	-0.5564822668757192	0.0	0.9757263329714343	-0.4822967424535206	0.0	0.9314755654486644	-0.5165549837915602	0.0	0.8774991543437655	-0.5472147511983065	0.0
